# xmcd CD database file
#
# Track frame offsets:
#	150
#	18937
#	38187
#	55262
#	82150
#	102337
#	128050
#	142137
#	151762
#	170087
#	190675
#	209462
#	233150
#	244962
#	262925
#	285237
#	295837
#	313275
#
# Disc length: 4436 seconds
#
# Revision: 0
# Processed by: cddbd v1.5.2PL0 Copyright (c) Steve Scherf et al.
# Submitted via: CDex 1.70beta2
#
DISCID=05115212
DTITLE=Zipflo Weinrich - Zipflo Weinrich Quartett
DYEAR=1988
DGENRE=Jazz
TTITLE0=Medium
TTITLE1=Buku
TTITLE2=Ther'll never be another you
TTITLE3=Burnies Tune
TTITLE4=A Dadlo
TTITLE5=Miri Menschengli
TTITLE6=Flintstones Theme
TTITLE7=Miles Theme
TTITLE8=For You
TTITLE9=Yellwo Bee
TTITLE10=Contessa
TTITLE11=Ther's no greater Love
TTITLE12=Wonderfull
TTITLE13=Just Friends
TTITLE14=Joschi'n you
TTITLE15=Schuka
TTITLE16=Toe Play
TTITLE17=Zipflo's Run
EXTD=YEAR: 1988
EXTT0=
EXTT1=
EXTT2=
EXTT3=
EXTT4=
EXTT5=
EXTT6=
EXTT7=
EXTT8=
EXTT9=
EXTT10=
EXTT11=
EXTT12=
EXTT13=
EXTT14=
EXTT15=
EXTT16=
EXTT17=
PLAYORDER=
